name ./resultDataOpenSim/trcMotMarkerGrf/sub10/grf-04-08.mot
datacolumns 19
datarows 22
range 0.54000000 0.62400000
endheader

                time	     ground_force_vx	     ground_force_vy	     ground_force_vz	     ground_force_px	     ground_force_py	     ground_force_pz	   l_ground_force_vx	   l_ground_force_vy	   l_ground_force_vz	   l_ground_force_px	   l_ground_force_py	   l_ground_force_pz	     ground_torque_x	     ground_torque_y	     ground_torque_z	   l_ground_torque_x	   l_ground_torque_y	   l_ground_torque_z	
          0.54000000	         29.86631976	        483.27404726	         -5.98852485	         -0.83282487	          0.00000000	          0.02975943	          0.00000000	          0.00000000	          0.00000000	          0.00000000	          0.00000000	          0.00000000	          0.00000000	          2.28882469	          0.00000000	          0.00000000	          0.00000000	          0.00000000	
          0.54400000	         32.63268274	        482.26562248	         -5.79969946	         -0.83254531	          0.00000000	          0.02998691	          0.00000000	          0.00000000	          0.00000000	          0.00000000	          0.00000000	          0.00000000	          0.00000000	          2.29241914	          0.00000000	          0.00000000	          0.00000000	          0.00000000	
          0.54800000	         35.31688343	        481.24121860	         -5.89245455	         -0.83222708	          0.00000000	          0.03022735	          0.00000000	          0.00000000	          0.00000000	          0.00000000	          0.00000000	          0.00000000	          0.00000000	          2.28105972	          0.00000000	          0.00000000	          0.00000000	          0.00000000	
          0.55200000	         37.95701364	        480.20115704	         -6.33649214	         -0.83185015	          0.00000000	          0.03048460	          0.00000000	          0.00000000	          0.00000000	          0.00000000	          0.00000000	          0.00000000	          0.00000000	          2.25251690	          0.00000000	          0.00000000	          0.00000000	          0.00000000	
          0.55600000	         40.59999427	        479.18482295	         -7.12539419	         -0.83139770	          0.00000000	          0.03075954	          0.00000000	          0.00000000	          0.00000000	          0.00000000	          0.00000000	          0.00000000	          0.00000000	          2.20795576	          0.00000000	          0.00000000	          0.00000000	          0.00000000	
          0.56000000	         43.26572088	        478.26498179	         -8.17881612	         -0.83085444	          0.00000000	          0.03105164	          0.00000000	          0.00000000	          0.00000000	          0.00000000	          0.00000000	          0.00000000	          0.00000000	          2.15222240	          0.00000000	          0.00000000	          0.00000000	          0.00000000	
          0.56400000	         45.92337122	        477.52748965	         -9.36246048	         -0.83020568	          0.00000000	          0.03135748	          0.00000000	          0.00000000	          0.00000000	          0.00000000	          0.00000000	          0.00000000	          0.00000000	          2.09320658	          0.00000000	          0.00000000	          0.00000000	          0.00000000	
          0.56800000	         48.48978247	        477.04719891	        -10.51934249	         -0.82943638	          0.00000000	          0.03166908	          0.00000000	          0.00000000	          0.00000000	          0.00000000	          0.00000000	          0.00000000	          0.00000000	          2.04039710	          0.00000000	          0.00000000	          0.00000000	          0.00000000	
          0.57200000	         50.84918172	        476.88062364	        -11.50502730	         -0.82853406	          0.00000000	          0.03197514	          0.00000000	          0.00000000	          0.00000000	          0.00000000	          0.00000000	          0.00000000	          0.00000000	          2.00297727	          0.00000000	          0.00000000	          0.00000000	          0.00000000	
          0.57600000	         52.88360294	        477.07828987	        -12.21966896	         -0.82749151	          0.00000000	          0.03226425	          0.00000000	          0.00000000	          0.00000000	          0.00000000	          0.00000000	          0.00000000	          0.00000000	          1.98791744	          0.00000000	          0.00000000	          0.00000000	          0.00000000	
          0.58000000	         54.50085752	        477.68941963	        -12.62881186	         -0.82630363	          0.00000000	          0.03253229	          0.00000000	          0.00000000	          0.00000000	          0.00000000	          0.00000000	          0.00000000	          0.00000000	          1.99848804	          0.00000000	          0.00000000	          0.00000000	          0.00000000	
          0.58400000	         55.65491740	        478.74193085	        -12.76948360	         -0.82496648	          0.00000000	          0.03278311	          0.00000000	          0.00000000	          0.00000000	          0.00000000	          0.00000000	          0.00000000	          0.00000000	          2.03348704	          0.00000000	          0.00000000	          0.00000000	          0.00000000	
          0.58800000	         56.35939170	        480.22292206	        -12.74360531	         -0.82348725	          0.00000000	          0.03302644	          0.00000000	          0.00000000	          0.00000000	          0.00000000	          0.00000000	          0.00000000	          0.00000000	          2.08732579	          0.00000000	          0.00000000	          0.00000000	          0.00000000	
          0.59200000	         56.69023140	        482.08886881	        -12.69956394	         -0.82187688	          0.00000000	          0.03327331	          0.00000000	          0.00000000	          0.00000000	          0.00000000	          0.00000000	          0.00000000	          0.00000000	          2.15098744	          0.00000000	          0.00000000	          0.00000000	          0.00000000	
          0.59600000	         56.77373468	        484.29749557	        -12.80208635	         -0.82014757	          0.00000000	          0.03353545	          0.00000000	          0.00000000	          0.00000000	          0.00000000	          0.00000000	          0.00000000	          0.00000000	          2.21373447	          0.00000000	          0.00000000	          0.00000000	          0.00000000	
          0.60000000	         56.76266839	        486.83296452	        -13.19592221	         -0.81832695	          0.00000000	          0.03382339	          0.00000000	          0.00000000	          0.00000000	          0.00000000	          0.00000000	          0.00000000	          0.00000000	          2.26526592	          0.00000000	          0.00000000	          0.00000000	          0.00000000	
          0.60400000	         56.80481895	        489.70890420	        -13.97393157	         -0.81645078	          0.00000000	          0.03414028	          0.00000000	          0.00000000	          0.00000000	          0.00000000	          0.00000000	          0.00000000	          0.00000000	          2.29785005	          0.00000000	          0.00000000	          0.00000000	          0.00000000	
          0.60800000	         57.01097299	        492.95687446	        -15.15946504	         -0.81454753	          0.00000000	          0.03449248	          0.00000000	          0.00000000	          0.00000000	          0.00000000	          0.00000000	          0.00000000	          0.00000000	          2.30788381	          0.00000000	          0.00000000	          0.00000000	          0.00000000	
          0.61200000	         57.43672452	        496.61464403	        -16.70672490	         -0.81261689	          0.00000000	          0.03488545	          0.00000000	          0.00000000	          0.00000000	          0.00000000	          0.00000000	          0.00000000	          0.00000000	          2.29645811	          0.00000000	          0.00000000	          0.00000000	          0.00000000	
          0.61600000	         58.08700232	        500.71694611	        -18.51503726	         -0.81064846	          0.00000000	          0.03531699	          0.00000000	          0.00000000	          0.00000000	          0.00000000	          0.00000000	          0.00000000	          0.00000000	          2.26881504	          0.00000000	          0.00000000	          0.00000000	          0.00000000	
          0.62000000	         58.93507203	        505.29466693	        -20.45119391	         -0.80862751	          0.00000000	          0.03577956	          0.00000000	          0.00000000	          0.00000000	          0.00000000	          0.00000000	          0.00000000	          0.00000000	          2.23290310	          0.00000000	          0.00000000	          0.00000000	          0.00000000	
          0.62400000	         59.94310968	        510.39220650	        -22.37643116	         -0.80653675	          0.00000000	          0.03626185	          0.00000000	          0.00000000	          0.00000000	          0.00000000	          0.00000000	          0.00000000	          0.00000000	          2.19744090	          0.00000000	          0.00000000	          0.00000000	          0.00000000	
